<?xml version="1.0" encoding="UTF-8" standalone="no"?>
<!DOCTYPE svg PUBLIC "-//W3C//DTD SVG 1.1//EN" "http://www.w3.org/Graphics/SVG/1.1/DTD/svg11.dtd">
<svg width="100%" height="100%" viewBox="0 0 411 332" version="1.1" xmlns="http://www.w3.org/2000/svg" xmlns:xlink="http://www.w3.org/1999/xlink" xml:space="preserve" xmlns:serif="http://www.serif.com/" style="fill-rule:evenodd;clip-rule:evenodd;stroke-miterlimit:10;">
    <g transform="matrix(1,0,0,1,-180.929,-142.612)">
        <path d="M241.8,224.5C241.8,224.5 240.6,231.9 232.9,237.9C225.1,243.9 215.6,262.5 222.8,275.6C230,288.7 256.5,330.6 245.8,349.5C235.1,368.4 216.7,379.2 220.3,391.6C223.9,403.9 233.1,423.3 242.6,425.2C252.1,427.1 269.3,430 270.4,423.8C271.5,417.6 265.6,415.3 250.5,416.4C235.4,417.5 204.7,415.4 206.1,427.6C207.5,439.7 239.7,443.1 245.4,442.7C245.4,442.7 263.5,445 276.8,434.3C290.1,423.6 301.9,411.1 307.1,394C315.8,365.1 306.9,267.1 312,238.3C317.1,209.5 317.1,197.9 323,190.2C328.9,182.5 342.4,174.1 346.1,176.2" style="fill:none;fill-rule:nonzero;stroke:rgb(157,211,204);stroke-width:5px;"/>
        <path d="M281.5,268.6C281.5,268.6 276.6,272.9 284.7,280.8C292.8,288.7 307.3,293.9 336.1,309.8C364.9,325.7 397.2,345.3 417.2,365.4C437.3,385.5 459.2,418.3 473.2,428.7C487.2,439.1 493.8,445.8 520,442.9C546.2,439.9 566.4,439.2 566.4,429.1C566.4,419 540.5,424.7 513.6,420.6C486.7,416.5 471.1,405.4 483.4,393.1C495.7,380.8 532.8,366.2 543,342.8C553.2,319.4 551.8,302 545.3,281.2C538.8,260.4 534.9,260.3 542.6,249.5C550.3,238.8 548.4,241.6 552.6,236.3C556.8,231 555.2,224.6 555.2,224.6" style="fill:none;fill-rule:nonzero;stroke:rgb(157,211,204);stroke-width:5px;"/>
        <path d="M441.6,172.5C441.6,172.5 448.6,164.9 451.9,168.9C455.2,172.8 461.5,196.8 456.1,226.9C450.7,257 429.3,296.1 438.2,320.8C447.1,345.6 450.5,363.9 447.1,373.3C443.7,382.7 429.8,397.4 436,411.1C442.2,424.8 449.8,437.7 460.9,437.3C472,436.9 481,429.8 483.1,422.2C485.2,414.6 504.1,394 515.3,392.6C526.5,391.2 536.3,392.1 532,404.5C527.8,416.9 515.3,429.4 506.4,434C497.5,438.6 473.8,442.8 459.1,441.7C444.4,440.6 446.1,425.4 423,417.2C399.9,409 370.6,422.3 341.9,426C313.2,429.6 279.1,427.5 276.1,417.8C273.1,408.1 300.4,403.1 299,422.7C297.6,442.3 290.4,443.8 279.7,442.9C269,442 233.9,424.3 221.4,430.9C208.9,437.4 217.4,451 232.6,448.6C247.8,446.2 266.6,416.1 278.6,400.5C290.6,384.9 292.7,372.4 292.7,372.4" style="fill:none;fill-rule:nonzero;stroke:rgb(157,211,204);stroke-width:5px;"/>
        <path d="M488.8,250.1C488.8,250.1 497.3,256.5 490.3,264.8C483.3,273.1 471.7,277.9 466,286.4C460.3,294.9 458.5,297.1 458.9,305.5C459.4,313.8 458.8,316.8 458.8,316.8" style="fill:none;fill-rule:nonzero;stroke:rgb(157,211,204);stroke-width:5px;"/>
        <path d="M248.1,225.9L231,225.9L227.2,212.3L243.6,206.6L248.1,225.9Z" style="fill:rgb(157,211,204);fill-rule:nonzero;"/>
        <path d="M547.2,208.8L562.2,209.2C562.2,209.2 566,224.3 558.6,224.2C551.2,224.1 547.5,221.2 547.2,218.3C546.9,215.4 547.2,210.1 547.2,210.1" style="fill:rgb(157,211,204);fill-rule:nonzero;"/>
        <path d="M249.1,439.9C251.1,439.6 253.1,439.3 255.2,438.9C255.5,438.9 255.7,438.7 256,438.6C255.8,438.4 255.6,438 255.3,437.9C254.1,437.3 252.9,436.7 251.7,436.2C251.3,436 250.5,436.2 250.1,436.5C249.2,437.3 248.5,438.2 247.7,439.1C247.6,439.2 247.8,439.7 248,439.7C248.3,440 248.7,439.9 249.1,439.9ZM299.2,422.7C299.5,420.6 298.3,418.8 297.7,416.7C297.5,416.1 297,415.6 296.6,415.1C296.2,414.6 295.8,414.6 295.4,415.1C294.7,416 293.9,416.8 293.2,417.7C291.9,419.2 290.6,420.7 289.3,422.2C288.7,422.9 288.9,423.3 289.8,423.5C292,424 294.3,424.5 296.5,425C299.4,425.7 299.4,425.7 299.2,422.7ZM270.6,422.1C270.6,421.9 270.5,421.3 270.4,420.8C269.9,418.9 268.3,418.1 266.7,417.4C265.4,416.9 265.2,418.4 264.3,418.8L264.2,418.9C262.6,420.9 261,422.8 259.4,424.8C258.9,425.5 259,425.8 259.9,425.9C262.7,426.1 265.6,426.2 268.3,425.4C269.8,425 270.6,423.8 270.6,422.1ZM556.3,209.5C558.2,209.5 558.2,209.5 558.3,207.7C558.3,207.5 558.4,207.3 558.4,207.1C558.7,204.3 558.9,201.6 559.2,198.8C559.3,198 559.1,197.4 558.1,197.5L554.7,197.5C553.5,197.6 552.3,197.8 551.1,197.8C550.2,197.8 549.9,198.2 549.9,199.1C550.1,202.2 550.2,205.3 550.4,208.3C550.4,209.1 550.8,209.5 551.6,209.5L556.3,209.5ZM556.9,222C557.5,221.9 558.2,222.1 558.7,221.8C559.4,221.5 560.2,220.9 560.4,220.3C560.9,218.1 561.1,215.9 561.4,213.7C561.6,212.6 561,212.1 560,212C557.2,211.9 554.5,211.9 551.7,211.9C551.1,211.9 550.4,212.1 550.1,212.5C549.7,213 549.6,213.8 549.6,214.5C549.6,214.7 550.2,214.9 550.5,215C551.5,215.2 552.1,216.3 551.4,217.2C550.6,218.3 551.1,218.8 551.9,219.4C552.3,219.7 552.7,220 553.1,220.3C554,221.5 555.2,222.3 556.9,222ZM228.9,449.6C235.4,448.6 236.2,445.7 239.1,443.2C239.2,443.1 239.4,442.7 239.3,442.6C239.2,442.4 238.9,442.3 238.7,442.3C237.9,442.4 237.1,442.6 236.3,442.6C232.9,442.4 229.5,442.5 226.2,441.6C225.8,441.5 225.3,441.5 224.9,441.4C222.5,441.1 220.2,440.9 217.8,440.5C216.6,440.3 216.3,440.4 216.4,441.7C216.7,444.7 222.4,450.6 228.9,449.6ZM285.1,409.8C283.6,409.7 281.7,410.6 279.9,411.7C278.8,412.3 278.1,413.3 278.3,414.5C278.6,415.8 279,417.1 279.7,418.2C280.9,420.2 283.1,421 285.1,422C285.5,422.2 286.2,422.1 286.5,421.8C287.6,420.7 288.7,419.6 289.6,418.4C290.9,416.8 292.1,415.2 293.5,413.7C294.3,412.8 294,412.4 293.2,412C290.8,410.7 288.4,409.7 285.1,409.8ZM453.7,437.9C451.4,436.9 449.3,435.6 447.1,434.4C446.9,434.3 446.6,434.2 446.3,434.2C446.3,434.5 446.3,434.8 446.4,435C447,436.2 447.9,437.3 449,437.9C452.2,439.7 455.6,441 459.2,441.6C460.5,441.8 466.8,442.1 468.7,441.9C473.5,441.3 478.4,440.8 483.2,440.2C484.4,440 485.5,439.6 486.7,439.3C486.9,439.3 487,439.1 487.2,439C487,438.9 486.9,438.8 486.7,438.7C484.7,437.7 482.7,436.7 480.8,435.6C479.6,434.9 478.6,433.9 477.5,433.1C477,432.7 476.6,432.2 476,432.9C474.7,434.2 473.4,435.6 472.1,437C472.1,437 468.7,438.6 463.8,439C460,439.2 454.7,438.4 453.7,437.9ZM458.1,334.9L459.9,334.9C461.6,334.8 461.6,334.7 461.7,333.1C461.9,330.4 462.1,327.6 462.1,324.9C462.1,323.1 462,321.3 461.9,319.5C461.8,318.8 461.7,318.1 460.6,318.2C458.4,318.5 456.2,318.7 453.9,318.8C453,318.9 452.7,319.1 452.8,320.1C453,322.1 453.1,324.2 453.3,326.2C453.5,328.4 453.7,330.7 454,332.9C454.2,334.5 454.5,334.8 456,334.9C456.7,335 457.4,334.9 458.1,334.9ZM254.4,425.3C255,425.1 255.7,425 256,424.6C257.2,423.3 258.3,421.8 259.4,420.5C260.2,419.5 261,418.6 261.8,417.7C262.1,417.4 262.3,417.1 262.6,416.7C262.2,416.6 261.9,416.4 261.5,416.4C257.8,416.4 254,416.3 250.3,416.3C248,416.3 245.7,416.5 243.4,416.7C240.6,416.9 237.9,417.2 235.1,417.4C234.8,417.4 234.5,417.5 234.3,417.6C234.5,417.8 234.7,418.2 234.9,418.3C236.4,419.2 238,419.9 239.4,420.8C241.8,422.3 244.2,423.6 247.1,423.6C247.3,423.6 247.6,423.7 247.8,423.8C250.1,424.3 252.2,424.8 254.4,425.3ZM473.3,177.9C473.3,177.9 473.3,178 473.3,177.9C473.7,178 474,178 474.4,178C475.7,177.9 477.2,178.1 478.2,177.4C480.8,175.6 483.2,173.5 485.6,171.4C485.9,171.2 486,170.8 486.1,170.4C485.8,170.3 485.4,170.1 485.1,170.2C482.2,170.3 479.3,170.4 476.4,170.5C472.1,170.7 467.8,171.1 463.4,171.3C460.9,171.5 458.4,171.6 456,171.7C455.4,171.7 455,171.8 455.2,172.7C455.6,174.4 455.9,176.2 456.1,178C456.2,178.7 456.3,179.1 457.2,179C458.2,178.8 459.3,178.9 460.3,178.9C464.6,178.6 469,178.2 473.3,177.9ZM272.9,439.9C275,439.5 276.9,439.1 278.8,438.9C282.2,438.5 285.5,437.7 288.7,436.7C292.9,435.4 295.5,432.2 298.1,429C298.7,428.3 298.4,427.7 297.5,427.5C294.2,426.8 290.9,426.1 287.6,425.4C287.3,425.3 286.8,425.4 286.5,425.6C285.8,426.1 285.2,426.6 284.5,427.2C281.9,429.6 279.6,432.3 276.6,434.2C273.7,436 270.8,437.9 267.3,438.5C267,438.5 266.8,438.8 266.5,439C266.8,439.1 267,439.4 267.3,439.4C269.2,439.6 271.1,439.8 272.9,439.9ZM325.2,185.7C326.5,184.8 327.6,183.6 328.7,182.5C329.4,181.8 330.1,181 330.8,180.2C331.2,179.7 331.1,179.3 330.3,179.3C328.5,179.4 326.7,179.4 324.9,179.5C322.5,179.7 320.1,179.9 317.7,180.1C313.8,180.5 310,180.7 306.1,181.2C303.2,181.6 300.2,182.4 297.3,183C296,183.3 294.7,183.9 293.4,184C290.9,184.2 289.1,185.5 287.4,187C287.2,187.1 287.2,187.4 287.1,187.6C287.3,187.7 287.5,187.8 287.7,187.8C289.4,187.6 291,187.4 292.7,187.2C295.7,187 298.6,186.7 301.6,186.6C303.4,186.5 305.2,186.7 306.9,186.6C309.8,186.5 312.7,186.3 315.6,186.2C318.1,186.2 324.5,186.3 325.2,185.7ZM247.5,222.2C246.5,218.1 245.5,214.1 244.5,210C244.3,209.1 243.6,209 242.8,209.2C241.5,209.5 240.3,209.8 239,210.1C236.3,210.7 233.6,211.2 231,211.8C230.2,212 229.8,212.4 230.1,213.3C230.4,214.5 230.5,215.7 230.8,216.8C231.4,219.4 232,221.9 232.7,224.5C232.9,225.3 233.3,225.9 234.3,225.7C235.6,225.5 236.8,225.3 238.1,225.1C240.8,224.7 243.4,224.3 246.1,223.9C247.1,223.8 247.4,223.2 247.5,222.2ZM240.1,440C241.5,440.3 243,440.1 244.3,439C245.3,438.1 246.3,437.1 247.3,436.1C248.2,435.2 248.2,434.7 247,434.3C244.9,433.5 242.8,432.7 240.7,432C239.8,431.7 238.9,431.4 238,431.1C237.2,430.8 236.4,430.5 235.6,430.3C233.8,429.9 232,429.6 230.1,429.4C227.2,429.2 224.3,429.3 221.6,431C219.5,432.3 218.3,434.2 217.4,436.4C216.8,437.9 216.9,438.1 218.5,438.3C221.7,438.7 224.9,438.9 228,439.6C231.9,440.4 235.9,440.2 240.1,440ZM213.9,436.9C214.8,437.2 215.3,437 215.4,436C215.6,433.9 216.6,432.2 218,430.7C220.4,428 223.7,426.7 227.3,426.6C230.3,426.6 233.4,427 236.3,427.8C240.6,429 244.9,430.7 249.1,432.2C249.7,432.4 250,432.4 250.3,431.9C251,430.8 251.8,429.8 252.6,428.8C253.6,427.5 253.5,427.4 252,427.1C249.9,426.8 247.8,426.5 245.7,426.1C241.1,425.2 237.2,422.7 233.4,420.1C232.2,419.3 231,418.4 229.7,418C228.5,417.6 227.1,417.7 225.9,417.9C222.4,418.6 219,419.1 215.7,420.4C213.5,421.3 211.7,422.6 210.3,424.5C209.2,425.8 205.5,433.3 213.9,436.9ZM419.8,364.3C419.1,364.3 418.4,364.2 417.7,364.3C417,364.4 416.5,364.7 417.1,365.5C417.6,366.1 418,366.7 418.5,367.2C420.6,369.4 422.7,371.7 424.9,373.9C425.5,374.6 426.1,375.3 426.8,376C428.1,377.2 429.5,378.3 430.8,379.5C432.8,381.3 437.7,386.1 438.1,386.7C438.8,387.9 438.9,387.2 439.4,386.5C441.1,383.7 442.1,380.5 443.2,377.4C444.1,374.9 444.9,372.3 445.7,369.8C446.1,368.4 446.3,367 446.6,365.5C446.7,364.7 446.7,364.1 445.5,364.2C442.7,364.3 439.9,364.3 437,364.2C434.1,364.2 419.8,364.2 419.8,364.3ZM482.5,266.1L482.5,267C482.6,267.7 482.7,268.4 482.8,269.2C483.3,268.8 484,268.5 484.4,268C485.2,266.9 486.6,266.2 486.6,264.6C486.5,261.3 486.3,257.9 486.2,254.6C486,248.3 485.9,242 485.8,235.7C485.7,229.6 486.6,207.3 487,202.3C487.3,198.9 487.5,195.4 487.6,192C487.7,188.8 487.5,185.6 487.6,182.4C487.7,179.5 486.8,176.6 487.3,173.6C487.3,173.3 486.6,173 486.4,173.2C485.3,174.1 484.2,175 483.3,176C482.5,176.8 481.6,177.8 481.4,178.8C481.1,180.7 481.2,182.7 481.2,184.6C481.4,191.1 481.9,197.6 481.9,204.1C482,212.5 481.7,220.9 481.6,229.3L481.6,245.8C481.6,248.4 481.7,251 481.8,253.6C482,257.7 482.2,261.9 482.5,266.1ZM482.2,346.6L482.2,352.9C482.2,354.8 482.4,356.7 482.4,358.6C482.4,359.4 482.7,359.3 483.2,358.9C484.4,358 485.6,357.2 486.9,356.3C487.9,355.6 488.6,355 488.6,353.5C488.5,350.1 489,346.8 489,343.4C489.1,337 489,330.5 489,324.1C489,318.1 488.9,312 488.8,306C488.6,299 488.3,291.9 488,284.9C487.9,283 487.8,281.1 487.7,279.2C487.7,278.6 487.6,278 486.8,278.8C486.1,279.5 485.6,279.1 485.3,278.5C484.7,277.5 484.9,276.5 485.8,275.8C487.5,274.4 487.6,272.6 487.2,270.7C487.1,270.1 486.9,270 486.5,270.4C485.5,271.3 484.5,272.2 483.6,273.2C483.3,273.5 483,274.1 483,274.6C482.9,277.3 482.9,280.1 482.9,282.8C483,292 483.1,301.2 483.1,310.3C483.1,316.2 482.9,322.2 482.8,328.1C482.4,334.2 482.2,346.6 482.2,346.6ZM491.9,438.4C491.9,438.3 499.7,435.5 502.9,433.7C506.5,431.7 509.7,429.1 513,426.6C514.9,425.2 516.6,423.5 518.4,421.9C518.6,421.7 518.8,421.5 519,421.3C518.7,421.2 518.4,421 518.1,421C515.5,420.7 512.8,420.6 510.2,420.2C507.2,419.8 504.3,419.1 501.4,418.8C497.3,418.4 493.5,417.5 489.8,415.6C488.1,414.7 487.7,414.9 486.7,416.5C484.3,420.5 479.1,429.1 478.9,429.4C478.2,430.4 478.6,431.2 479.5,431.9C481.3,433.3 483,434.8 485,435.8C487.2,436.9 489.6,437.5 491.9,438.4ZM522.2,393.1C521.2,393.3 519.7,393.6 518.4,394C514.3,395 510.3,396.2 506.9,398.8C504.4,400.6 501.9,402.3 499.3,404.1C496.2,406.2 493.3,408.7 490.9,411.7C490.3,412.4 490.1,413 491.2,413.4C493.4,414.2 495.6,415.1 497.8,415.7C500.8,416.5 503.8,417 506.9,417.5C510.1,418 513.2,418.4 516.4,418.7C518.3,418.9 520.2,418.7 522.1,418.6C522.6,418.6 523.2,418.4 523.6,418C525,416.8 526.3,415.5 527.5,414.1C530.4,410.8 531.9,406.8 532.7,402.5C533,400.6 532.6,399.1 531.8,397.5C531.1,396.2 529.8,395.9 528.8,395.2C526.8,393.8 524.7,393.3 522.2,393.1ZM416.5,399C416.9,403.6 417.3,408 417.8,412.4C417.8,412.8 418.4,413.4 418.7,413.5C422.4,414.2 425.8,415.4 429.1,417.1C431.3,418.2 433.5,419.4 435.7,420.6C436.4,421 437,421.3 437.6,421.7L438.2,422C438.1,421.8 438,421.5 438,421.3C437.4,419 436.7,416.8 436.2,414.5C435.8,412.6 435.8,410.6 435.5,408.7C434.5,403.2 435.7,398 437.4,392.9C437.7,391.9 438.3,390.8 438.2,389.8C438.1,389.1 437,388.6 436.3,388C436,387.8 435.8,387.5 435.6,387.2C433.8,385.3 432.1,383.1 430,381.6C426.3,378.9 423.3,375.5 420.1,372.3C418.8,371 417.8,369.6 416.6,368.2C416.4,368 416.1,367.9 415.9,367.8C415.9,368 415.8,368.3 415.8,368.5L415.8,371.3C415.9,375.4 416.1,379.5 416.2,383.7C416.3,385.8 416.4,387.9 416.4,390C416.5,393.2 416.5,396.2 416.5,399ZM437.7,404.1C437.8,405.9 437.9,407.8 438.1,409.6C438.4,413.3 438.8,417.1 440.4,420.5C441.5,422.7 442.2,425.2 443.7,427.2C445.7,430 448.3,432.2 451.3,433.8C454.8,435.8 458.6,437.1 462.7,437.4C464.8,437.5 466.8,437.1 468.7,436C470.7,434.9 472,433 473.7,431.6C474.9,430.6 474.8,430.4 473.7,429.2C473.5,429 473.4,428.8 473.2,428.6C470.4,425.5 467.5,422.5 464.8,419.3C462.6,416.8 460.7,414 458.4,411.4C456.1,408.8 453.6,406.5 451.3,403.9C447.9,400.3 444.5,396.6 441.1,392.9C440.2,391.9 439.9,392 439.6,393.2C438.5,396.9 437.6,400.4 437.7,404.1ZM341.6,178.7C340.7,178.6 339.9,178.6 339,178.7C336.7,178.8 334.6,179.4 333,181.3C331.9,182.6 330.5,183.8 329.3,185C329.1,185.2 329.1,185.5 329,185.7C329.2,185.8 329.5,186 329.7,185.9C333.4,185.7 337.1,185.5 340.8,185.4C345.2,185.2 349.7,185 354.1,184.9C357.6,184.8 361.1,184.7 364.6,184.5C369.9,184.2 375.2,183.7 380.4,183.4C384.4,183.1 388.4,183 392.3,182.7C395,182.5 397.8,182.2 400.5,182C404.7,181.8 408.9,181.6 413,181.4C417.7,181.1 422.4,180.8 427.2,180.5C430.5,180.3 433.7,180.2 437,180.1C439.2,180 441.5,179.9 443.7,179.8C446.4,179.7 449.2,179.6 451.9,179.5C452.9,179.5 453.2,178.9 453,178.2C452.7,176.6 452.3,175.1 451.9,173.6C451.5,172.2 450.6,171.6 449.1,172C448.5,172.1 447.9,172 447.3,172C446.2,172.1 445.2,172.2 444.1,172.3C443.3,172.4 442.4,172.5 441.6,172.6C440.6,172.7 439.5,172.6 438.5,172.7C437.2,172.8 435.8,173 434.5,173.1C429.7,173.4 425,173.6 420.2,173.9C416.5,174.1 412.7,174.3 409,174.5C407.4,174.6 405.8,174.6 404.3,174.7C399.1,175.2 394,175.8 388.8,176.2C385.5,176.5 382.3,176.5 379,176.6C373.8,176.9 368.6,177.2 363.3,177.5C362.1,177.6 360.8,177.7 359.6,177.7C356.8,177.8 354,177.9 351.3,178.1C348.1,178.2 344.8,178.5 341.6,178.7ZM512.3,441.6C514.7,441.4 517.8,441.2 520.9,440.9C525.3,440.5 529.6,440 534,439.6C539,439.1 544,438.6 548.9,437C552.7,435.7 556.4,434.2 559.9,432.3C562,431.1 563.6,429.5 564.1,427C564.3,426.1 564.2,425.2 563.3,424.8C562,424.1 560.7,423.3 559.4,423.1C556.2,422.5 553,422 549.8,421.8C544.3,421.4 538.8,421.1 533.3,420.9C530.8,420.8 528.2,421 525.7,420.8C523.7,420.7 522.3,421.8 521,422.9C517,426.1 513.1,429.6 508.9,432.5C506.2,434.4 503.6,436.6 500.3,437.5C499.4,437.7 498.7,438.2 497.9,438.6C497.7,438.7 497.6,438.9 497.4,439.1C497.6,439.2 497.7,439.3 497.9,439.4C502.3,440.6 506.9,441.7 512.3,441.6ZM307.7,370.9C304.4,371.2 301.1,371.6 297.9,371.9C297,372 296.7,372.5 296.5,373.3C295.4,377.6 293.4,381.4 290.8,384.9C288.2,388.4 285.3,391.7 282.6,395.2C280.2,398.3 278,401.6 275.7,404.8C273.4,407.9 271.1,411 268.7,414.1C268.1,414.9 267.9,415.3 269,415.9C271.3,417.1 272.6,419.1 273.1,421.7C273.6,424.4 272.1,427.1 269.8,427.6C265.8,428.5 261.8,429.1 257.7,428.2C257.3,428.1 256.6,428.2 256.4,428.5C255.2,430 254.1,431.6 253,433.2C252.5,433.9 252.9,434.3 253.6,434.6C254.8,435.1 256,435.8 257.3,436.3C259.6,437.3 261.8,438.5 264.4,437.1C265.1,436.7 266,436.5 266.8,436.2C268.8,435.4 271,434.9 272.7,433.7C276.1,431.3 279.4,428.7 282.6,426.1C283.6,425.3 283.5,424.7 282.5,423.9C281.1,422.8 279.5,421.9 278.2,420.7C277.4,420 276.7,418.9 276.3,417.9C275.9,416.8 275.8,415.6 275.7,414.4C275.5,412.6 276.1,411.1 277.8,410.3C279.4,409.5 281.1,408.7 282.8,408C284.8,407.2 286.7,407.2 288.7,408.1C290.7,409 292.8,409.6 294.9,410.4C295.2,410.5 295.7,410.5 295.9,410.3C296.5,409.7 297.1,409.1 297.5,408.3C299.3,405 301.1,401.7 302.7,398.2C304.1,395.1 305.2,391.8 306.3,388.5C307.1,385.8 307.7,383.1 308.3,380.4C308.8,377.8 309.3,375.1 309.7,372.4C309.9,371.4 309.6,370.8 308.4,371C308.1,371 307.9,370.9 307.7,370.9ZM309.7,305.6L309.7,296.5C309.7,295.7 309.4,295.2 308.6,295C307.2,294.7 305.9,294.4 304.5,294C300.3,292.8 296.5,290.9 292.8,288.7C289.4,286.7 286.7,284.1 284.7,280.8C284.6,280.6 284.3,280.4 284.1,280.2C284,280.5 283.8,280.7 283.8,281C283.7,283.2 283.6,285.4 283.5,287.7L283.5,301.5C283.5,304.8 283.6,308.1 283.6,311.4L283.6,326.7C283.6,330.5 283.5,334.4 283.6,338.2C283.6,340.6 283.7,343 283.8,345.4C284,348.4 284.4,351.4 284.5,354.3C284.7,358.8 284.8,363.3 285.1,367.9C285.2,370.5 285.2,369.9 287.7,370.3L288.1,370.3C294.3,369.8 300.4,369.3 306.6,368.7C307.5,368.6 308.8,368.9 309.3,368.3C309.8,367.7 309.6,366.5 309.7,365.5C310,361 310.4,356.6 310.7,352.1C310.9,348.1 311.1,344.1 311.2,340.1C311.2,337 311.1,333.8 311,330.7C310.9,326.9 310.9,323 310.7,319.2C310.4,314.4 310,309.8 309.7,305.6ZM348.9,375.8C349,375.8 349,375.8 348.9,375.8C348.9,374.2 348.8,372.5 348.7,370.9C348.5,368.9 348.4,368.8 346.4,369C344.9,369.1 343.3,369.3 341.8,369.4C339.6,369.5 337.4,369.5 335.2,369.6C334.3,369.6 333.3,369.6 332.4,369.7C329.8,369.9 327.1,370.1 324.5,370.2C321,370.4 317.5,370.5 314,370.7C312.3,370.8 312.3,370.9 312,372.6C311.8,374.2 311.5,375.8 311.1,377.4C310.5,380.1 309.7,382.7 309.3,385.4C308.8,388.4 308.1,391.2 306.8,394C305.7,396.3 304.4,398.5 303.7,401C302.6,404.7 300.6,407.8 298.4,410.8C297.4,412.2 297.4,412.3 298.5,413.7C298.8,414.1 299.1,414.5 299.3,414.9C301.1,417.8 301.3,421.2 301.7,424.5C301.9,426 301.9,426.2 303.4,426.4C305.8,426.7 308.3,426.9 310.7,427C314.2,427.1 317.8,427.2 321.3,427C325,426.7 328.7,426.1 332.4,425.4C337.4,424.5 342.3,423.5 347.2,422.5C348.5,422.2 350.1,422.2 350.8,421.4C351.4,420.6 351.1,419 351.1,417.7L351.1,417.1C351.1,415.3 351.1,413.5 350.9,411.7C350.5,406.6 350,401.6 349.5,396.5C349.4,394.9 349.1,393.3 349.1,391.7C349.2,386.4 349.1,381.1 348.9,375.8ZM309.9,285.4L309.8,285.4L309.8,285C309.8,280.2 309.7,275.4 309.9,270.7C310,266.3 310.3,261.8 310.5,257.4C310.8,252.3 311,247.1 311.4,242C311.9,237 312.6,232.1 313.3,227.2C313.8,223.6 314.3,220.1 315.1,216.6C316,212.4 317.3,208.3 318.3,204.2C319.5,199.5 320.9,194.8 322.8,190.3C323.3,189.2 323.1,189 321.9,189C318.2,189.1 314.4,189.2 310.7,189.3C309.7,189.3 308.7,189.4 307.7,189.4C304.4,189.5 288.4,190.6 285.6,191.4C285.3,191.5 284.8,192 284.8,192.3C284.6,194.9 284.5,197.6 284.4,200.2C284.3,203.5 284.1,206.8 284,210.1C283.9,213.4 283.6,216.8 283.7,220.1C283.8,225.2 284.2,230.2 284.4,235.3C284.4,235.9 284.3,236.6 284.3,237.2C284.3,238.6 284.2,240 284.2,241.4C284.3,244.4 284.5,247.5 284.6,250.5C284.8,258.2 284.3,265.9 283.7,273.6C283.6,274.8 283.9,275.7 284.7,276.6C286.1,278.4 287.3,280.2 288.7,282C289.6,283.1 290.4,284.4 291.6,285.2C296.6,288.9 302.3,291.4 308.4,292.8C309.3,293 309.5,292.7 309.6,291.9C309.7,289.6 309.8,287.5 309.9,285.4ZM414.1,412.8C415.1,412.9 415.3,412.5 415.2,411.6C414.9,409.3 414.5,407.1 414.4,404.8C414.1,398.5 413.9,392.1 413.7,385.8C413.6,382.8 413.5,379.7 413.4,376.7C413.2,373 413,369.2 412.8,365.5C412.8,364.6 412.3,364.3 411.4,364.4C407.2,364.8 403.1,365.3 398.9,365.6C396.7,365.8 394.5,365.7 392.4,365.8C390,365.9 387.5,366.1 385.1,366.2C382.8,366.3 380.6,366.4 378.3,366.5L377.1,366.5C373.5,366.6 369.8,366.7 366.2,366.9C364.4,367 362.5,367.3 360.7,367.5C358.1,367.7 355.4,367.9 352.8,368.1C351.2,368.2 351.1,368.4 351.3,370C351.4,370.7 351.4,371.5 351.4,372.2C351.4,374.8 351.3,377.5 351.4,380.1C351.5,382.5 351.8,385 351.9,387.4C352.1,391.1 352.2,394.9 352.4,398.6C352.6,401.7 353,404.9 353.2,408C353.5,411.9 353.6,415.8 353.8,419.7C353.8,419.9 353.9,420.1 353.9,420.3C354,421 354.3,421.2 355,421.1C357.6,420.7 360.2,420.3 362.8,419.8C365.8,419.2 368.7,418.4 371.7,417.9C375.5,417.2 379.4,416.5 383.2,415.9C385.7,415.5 396.2,414.4 398.9,414C402.7,413.6 412.8,412.8 414.1,412.8ZM312.5,366.2C312.4,368.7 312.6,368.3 314.4,368.2C315.8,368.1 317.3,368 318.7,368C323.3,367.9 328,367.8 332.6,367.6C338,367.3 343.4,366.9 348.9,366.4C353.1,366.1 357.2,365.5 361.4,365.2C366.9,364.8 372.4,364.7 377.8,364.4C382.5,364.2 387.2,364 391.8,363.7C394.5,363.6 397.2,363.5 399.9,363.3C402.9,363.1 406,362.9 409,362.6C410.2,362.5 410.3,362.2 409.5,361.4C407,358.9 404.6,356.2 401.8,354.1C396.6,350.2 391,346.7 385.6,343.1C384.4,342.3 383,341.8 381.8,340.9C377.1,337.5 372.4,334.1 367.8,330.7C366.7,329.9 365.5,329.1 364.4,328.3C361.7,326.3 359.1,324 356.2,322.2C351.7,319.4 347.1,316.9 342.5,314.2C338.9,312.1 335.4,310 331.9,307.7C326.2,303.9 320.3,300.2 314.1,297.3C312.4,296.5 312.1,296.6 312.2,298.5L312.2,299.1C312.5,304.9 312.7,310.7 313,316.4C313.2,319.8 313.4,323.3 313.5,326.7C313.6,330.3 313.7,333.9 313.6,337.5C313.6,341.2 313.4,344.9 313.3,348.6C313.2,351.9 313,355.2 312.9,358.5C312.8,361 312.6,363.6 312.5,366.2ZM480.3,284.1L480.3,277.7C480.3,276.5 480.1,276.3 479,277C477.9,277.6 476.9,278.3 475.9,279C474.1,280.3 472.4,281.6 470.6,282.9C467.4,285 464.5,287.5 462.4,290.8C461.6,292.1 460.8,293.5 460.4,294.9C458.6,301.1 458.9,307.4 459.5,313.8C459.7,315.8 459.8,315.8 461.9,315.6C462.4,315.5 462.9,315.6 463.4,315.6C464.3,315.7 464.6,316.3 464.6,317.1C464.5,321.8 464.3,326.4 464.2,331.1C464.2,332.4 464.1,333.8 464.1,335.1C464.1,336.6 463.4,337.5 462.3,337.3C459.5,336.8 456.7,337.3 453.9,337.4C452.9,337.5 452.3,337.1 452.2,336C451.9,333.7 451.6,331.4 451.3,329.2C450.9,325.6 450.5,322 450.1,318.3C449.9,316.8 450.5,315.8 452.1,315.8C453,315.7 454,315.8 454.9,315.9C457,316.1 457.2,315.9 457,313.8C456.9,312.2 456.4,310.5 456.4,308.9C456.4,305.7 456.6,302.4 456.7,299.2C456.9,294.7 458.8,290.9 461.4,287.5C463,285.4 464.8,283.4 467.1,281.9C469.8,280.2 472.4,278.2 474.9,276.2C476.6,274.9 478.2,273.4 479.9,271.9C480.1,271.7 480.2,271.3 480.2,271C480,267.4 479.8,263.7 479.6,260.1C479.3,252 478.9,243.8 478.8,235.7C478.7,231.1 479.2,226.4 479.2,221.8C479.2,214.2 479,206.5 478.9,198.9C478.8,193.3 478.5,187.6 478.3,182C478.2,180.3 478.2,180.3 476.6,180.3C470.2,180.6 463.8,180.9 457.5,181.2C456.6,181.2 456.3,181.7 456.4,182.6C456.5,184 456.6,185.4 456.9,186.8C458,191.8 458.3,196.9 458.2,202C458.1,203.5 458.4,205.1 458.3,206.6C458,210.4 457.7,214.2 457.3,218.1C456.9,222.3 456.5,226.6 455.9,230.7C454.9,237.3 453.8,243.8 452.6,250.3C452.2,252.5 451.4,254.7 451,256.9C450.1,261.7 449.2,266.4 447.4,270.9C445.9,274.7 444.3,278.5 443,282.4C441.6,286.7 440.4,291 439.3,295.3C437.8,301.4 436.5,307.6 437.4,313.9C438.1,319.2 439,324.5 441.1,329.6C442.6,333.4 444.1,337.2 445.6,341C446.2,342.5 446.9,343.9 447.4,345.4C448.1,347.4 449.1,349.4 449.4,351.5C449.9,354.3 449.9,357.2 450,360C450,361 450.2,361.5 451.3,361.4C453.6,361.3 456,361.3 458.3,361.3C462.5,361.3 466.7,361.4 470.9,361.4C473.2,361.4 475.5,361.1 477.7,360.9C479.6,360.8 480.2,360.2 480.1,358.5C480,354.8 479.7,351.1 479.7,347.5C479.7,343.8 479.8,340 480,336.3C480.1,333.8 480.4,331.3 480.5,328.8C480.6,324.2 480.6,319.5 480.7,314.9C480.8,310.4 480.9,305.9 480.9,301.4C480.6,295.7 480.4,289.9 480.3,284.1ZM281,288.4C280.8,287.7 280.6,286.3 280,285.3C277.5,281.4 274.3,278.2 270.8,275.2C267.6,272.5 264.4,270 261.4,267.2C259,265 256.5,263.1 253.8,261.2C248.3,257.5 242.9,253.6 238,249.1C235.7,247 233.4,244.9 231.1,242.7C230.6,242.2 230.2,242.4 229.8,242.8C228.7,244.1 227.5,245.3 226.5,246.6C223.3,251.1 222.4,256.4 222.1,261.8C221.8,267.7 223.3,273.2 226.8,278.2C227.7,279.4 228.4,280.7 229.1,282C231.5,286.5 233.8,291 236.1,295.5C237.5,298.4 238.9,301.3 240.1,304.3C241.8,308.6 244.3,312.5 245.4,317C246.2,320.2 247,323.4 247.9,326.5C249.5,332.3 249.2,338.1 247.6,343.8C246.7,346.9 245.5,349.8 244.6,352.9C243.6,356.1 242,359.1 240.1,361.8C239.2,363 238.4,364.2 237.4,365.4C235.9,367.3 234.4,369.3 232.7,371C229.9,373.9 227.6,377.2 225.5,380.6C224,383 223.2,385.6 222.8,388.3C222.5,390.2 222.2,392.1 222.3,393.9C222.4,397.9 223,401.7 224.3,405.5C225.2,408.2 226,411 228.2,412.9C229.6,414.2 231,415.5 233.3,415.2C236.4,414.8 239.5,414.8 242.5,414.6C245.6,414.4 248.8,414 251.9,413.9C256,413.9 260.2,414.1 264.3,414.3C264.7,414.3 265.3,414.2 265.6,413.9C267,412.5 268.3,411 269.5,409.4C271,407.5 272.2,405.5 273.6,403.5C275.9,400.3 278.3,397.1 280.7,393.9C283.9,389.6 287.4,385.3 290.4,380.8C291.9,378.6 292.7,375.8 293.8,373.3C294.1,372.5 293.9,372.2 293,372.3C290.8,372.6 288.5,372.8 286.3,373.1C284.8,373.3 283.2,372.4 283.2,371C282.9,367 282.7,362.9 282.5,358.9C282.5,358.3 282.5,357.6 282.4,357C282,351.8 281.4,346.7 281.3,341.5C281,333.2 281,324.9 281,316.6C281,309.8 281,302.9 281.1,296.1C281,293.8 281,291.3 281,288.4ZM489.2,356.7C487.4,358.5 484,360.8 482,362.3C481.5,362.7 480.8,362.8 480.2,362.9C477.4,363.2 474.7,363.5 471.9,363.7C470.3,363.8 468.7,363.8 467.1,363.8C465.5,363.8 463.9,364 462.3,363.9C458.3,363.5 454.3,363.5 450.3,364.1C449.5,364.2 449.3,364.5 449.2,365.2C448.8,369.9 446.7,374.2 445.3,378.6C444.2,381.9 442.8,385.1 441.4,388.3C441.1,389 441.1,389.5 441.6,390.1C443.7,392.4 445.8,394.8 447.9,397.1C448.3,397.5 455,404.7 457.8,408.1C460,410.8 462.4,413.3 464.7,416C466.6,418.2 468.5,420.6 470.5,422.8C471.8,424.3 473.3,425.6 474.7,427C476.1,428.5 476.4,428.5 477.6,426.8C477.7,426.6 477.9,426.4 478,426.2C479.8,423.3 481.8,420.6 483.2,417.5C483.7,416.4 484.7,415.5 485.4,414.5C485.9,413.8 485.7,413.3 485.1,412.9C484.3,412.4 483.4,412.1 482.9,411.4C480.8,409 478.9,406.5 477,403.9C476.4,403.1 476,402.1 476,401.1C475.9,399.1 476.6,397.3 478,395.8C478.3,395.4 478.6,395 478.9,394.6C480.3,392.3 482.4,390.7 484.3,388.9C485.6,387.7 487.3,386.9 488.6,385.7C490.8,383.6 493.3,382.1 496,380.7C498.7,379.2 501.5,377.8 504.2,376.2C507.9,374 511.6,371.7 515.2,369.4C516.7,368.5 518.2,367.5 519.7,366.6C521.1,365.7 522.6,364.9 524,363.9C525.9,362.5 527.6,361 529.4,359.4C531.6,357.5 533.7,355.6 535.8,353.6C538.6,350.9 540.6,347.6 542.4,344.2C544.1,341.1 545.5,337.7 546.7,334.4C548.1,330.3 549.9,326.3 550.3,321.9C550.3,321.4 550.4,320.9 550.6,320.4C552.1,314.9 552.3,309.3 551.5,303.8C550.6,297 548.8,290.4 546.5,283.9C546.2,282.9 545.9,281.9 545.4,281C543.6,277.5 541.7,274.2 540,270.7C538.9,268.4 538,265.9 537,263.5C535.7,260.3 535.6,257.2 537.4,254.2C537.6,253.8 537.8,253.3 538,252.8C539.2,250.7 540.2,248.6 541.5,246.6C542.6,244.9 543.9,243.3 545.2,241.7C547.2,239.1 548.9,236.3 551.2,234.1C553.1,232.2 554.1,230.2 554.6,227.7C554.8,226.7 554.1,225.3 552.7,224.9C552.4,224.8 551.6,224.4 551.3,224.1C550,222.8 550.2,221.8 548.8,220.6C548.5,220.4 547.7,220.4 547.4,220.7C545.2,222.7 542.9,224.7 540.9,226.8C538.4,229.4 536,232.2 533.1,234.4C531.6,235.5 530.3,236.8 529,238.1C526.9,240.1 524.8,242.1 522.8,244.1C521.6,245.3 520.5,246.7 519.2,247.9C516.2,250.8 513.1,253.7 510,256.6C508,258.5 506,260.3 504,262.2C502.4,263.8 500.8,265.4 499.1,267C498,268.1 496.8,269.2 495.7,270.3C494.3,271.8 493,273.4 491.5,274.7C490.3,275.7 490,276.7 490.2,278.1C490.2,278.5 490.3,278.9 490.3,279.3C490.6,286.4 490.9,293.5 491.2,300.7C491.3,304.6 491.4,320.6 491.4,324.6C491.5,328.3 490.6,351.9 490.5,352.8C490,356.5 490.3,355.6 489.2,356.7ZM312.3,284.2L312.1,284.2L312.1,292.1C312.1,293.3 312.3,294 313.6,294.5C315.5,295.2 317.3,296 319,297C321.6,298.5 324.1,300.2 326.6,301.8C329.9,303.9 333.2,305.9 336.5,307.9C337.8,308.7 339,309.7 340.3,310.5C342.7,311.8 345.1,313 347.5,314.4C350.1,315.9 352.6,317.5 355.1,319.1C357.7,320.8 360.3,322.7 362.8,324.4C365,325.9 367.4,327.3 369.4,329C374.2,333.2 379.6,336.6 384.7,340.2C386.6,341.6 388.8,342.6 390.9,343.8C391.7,344.3 392.5,345 393.3,345.6C396.8,348.1 400.3,350.5 403.8,353C406.3,354.7 408.3,356.9 410.4,359C411.4,360.1 412.7,360.9 413.9,361.8C414.3,362.1 414.8,362.1 415.3,362.1C417.3,362.1 419.3,361.9 421.3,361.9C425.7,361.8 430.2,361.8 434.6,361.7L440.7,361.7C442.4,361.7 444.2,361.6 445.9,361.6C446.7,361.6 447.2,361.2 447.2,360.4C447.2,358.2 447.4,355.9 447.1,353.7C446.4,350.1 445.4,346.6 443.6,343.2C440.3,337 438.1,330.3 436.3,323.5C435.3,319.9 434.9,316.1 434.5,312.3C434,307.4 434.7,302.5 435.8,297.8C436.7,293.8 437.9,289.9 439.2,286C440.1,283.3 441.1,280.6 442.1,277.9C442.4,277 442.7,276 443.1,275.1C443.9,272.9 444.9,270.8 445.6,268.6C446.2,266.6 446.6,264.5 447.1,262.5C447.8,259.8 448.6,257.2 449.2,254.5C450.2,249.5 451.1,244.5 451.9,239.5C452.5,236 452.9,232.5 453.3,229C453.7,225.3 454.1,221.7 454.5,218C454.8,215.6 455.4,213.2 455.4,210.8C455.5,206.7 455.4,202.5 455.4,198.4C455.4,196.5 455.2,194.6 455,192.7C454.6,189.4 454,186.1 453.6,182.8C453.5,181.9 453,181.8 452.3,181.8C445.3,182.1 438.3,182.3 431.2,182.7C428.3,182.8 425.4,183.2 422.5,183.3C416.6,183.7 410.7,184 404.7,184.3C403.2,184.4 401.6,184.2 400.1,184.3C397.1,184.6 394.1,185 391,185.2C387.1,185.4 383.1,185.4 379.2,185.6C374.9,185.8 370.7,186.3 366.4,186.6C361.3,186.9 356.2,187.3 351,187.5C348.8,187.6 346.6,187.4 344.4,187.5C338.6,187.8 332.8,188.2 326.9,188.6C326.4,188.6 325.7,189 325.5,189.5C324.2,192.4 322.7,195.4 321.8,198.4C320.5,202.5 319.5,206.8 318.5,211C317.7,214.1 317,217.2 316.4,220.3C315.7,223.9 315,227.5 314.6,231.2C314,235.6 313.6,240.1 313.3,244.6C312.9,250 312.7,255.4 312.5,260.7C312.3,265.3 312.2,270 312.1,274.6C312.2,277.8 312.3,281 312.3,284.2ZM542.2,418.6C547.3,418.9 552.3,419.6 557.4,420.2C559.2,420.4 560.9,420.8 562.7,421.3C563.8,421.6 564.9,422.3 565.9,422.9C566.7,423.3 567,424.1 567.1,425C567.5,429.3 565.2,432 561.8,433.9C559.8,435.1 557.7,436.2 555.5,437.1C549.7,439.4 543.7,440.9 537.4,441.3C533.7,441.5 530.1,442.3 526.4,442.6C520.7,443.1 515,443.5 509.2,443.9C506.4,444.1 503.8,443.3 501.2,442.5C498.6,441.8 495.9,441.2 493.2,440.6C492.7,440.5 492.1,440.6 491.6,440.7C489.5,441.2 487.4,441.7 485.3,442.1C482.7,442.6 480,442.8 477.3,443.4C472.5,444.5 467.6,444.4 462.7,444.8C460.4,445 458.1,444.2 455.8,443.5C452.8,442.5 449.8,441.3 447.1,439.5C445.3,438.3 443.9,436.7 443,434.7C441.5,431.3 439.4,428.3 436.7,425.7C436.3,425.4 436,425 435.7,424.6C434.1,422.7 432.2,421.2 429.9,420.2C426.9,418.9 423.8,417.7 420.8,416.4C420.6,416.3 420.3,416.2 420.1,416.2C418.2,415.8 417.9,416.1 418.2,417.9C418.7,421.5 419.4,425.2 419.9,428.8C420.1,430.6 420.4,432.2 421.8,433.5C422.5,434.2 423.3,434.8 424,435.5C426.3,437.4 428.6,439.3 430.8,441.2C432.8,442.9 434.6,444.8 436.5,446.7C437.4,447.6 437.3,448.3 436.5,449C435.6,449.7 435.3,449.6 434.3,448.6C432.4,446.8 430.2,445.2 428.6,443.1C426.9,440.8 424.2,439.9 422.5,437.7C421.5,436.4 420,435.5 418.8,434.3C418.4,433.9 418,433.3 417.9,432.7C417.2,428 416.6,423.2 415.9,418.5C415.8,418.1 415.8,417.6 415.8,417.2C415.7,415.4 415.7,415.2 413.8,415.2C411,415.1 408.1,415.1 405.3,415.3C400,415.8 394.7,416.5 389.4,417C385.1,417.4 380.9,418.3 376.8,419.3C375.7,419.6 374.6,419.6 373.6,419.8C370.1,420.5 366.7,421.3 363.2,422C360.6,422.5 357.9,423 355.2,423.3C354.3,423.4 354,423.8 354.1,424.5C354.4,427.4 353.7,430.4 355,433.2C355.3,433.8 355.2,434.2 354.7,434.8C353.8,435.7 353.2,436.8 352.4,437.8C351.4,439.1 350.2,440.2 349.2,441.5C348.3,442.6 347.5,443.8 346.7,445C345.8,446.5 344.9,448 344,449.5C343.7,450 343.5,450.6 343,450.8C342.4,451.1 341.6,451.4 341,451.2C340.2,450.9 340.4,450 340.7,449.4C341.1,448.6 341.5,447.8 342,447C344,443.9 345.9,440.8 348.5,438.2C349.4,437.3 350.2,436.2 350.8,435C351.3,433.9 351.7,432.7 351.8,431.5C351.9,429.4 351.7,427.3 351.6,425.2C351.6,424.3 351.2,424.2 350.4,424.3C346,425.2 341.6,426.1 337.2,426.8C330.8,427.8 324.5,428.7 318.1,429.4C313.9,429.9 309.7,429.4 305.5,428.7C303.4,428.3 301.4,428.1 300.2,430.6C299.5,432 298.2,433.1 297.2,434.3C295,437.1 292,438.5 288.7,439.2C284.2,440.2 279.6,441 275,441.8C271,442.5 267.1,441.9 263.2,440.7C262.2,440.4 261.1,440.5 260,440.6C257.7,440.9 255.3,441.1 253.1,441.8C250.5,442.6 247.9,442.7 245.3,442.7C243.5,442.7 242.3,443.5 241.5,444.9C238.8,449.2 235,451.5 230,452C228.2,452.2 226.3,452.3 224.5,452.2C221.3,452 219.1,449.8 217,447.7C215.2,445.8 214.1,443.5 214.5,440.8C214.6,439.9 214.1,439.6 213.4,439.3C212,438.8 210.6,438.3 209.3,437.5C207.1,436.2 206.4,434 205.9,431.6C205.3,428.7 206.6,426.4 207.9,424C209.6,420.7 212.6,419.2 215.8,418C219,416.8 222.4,416 225.9,415.8C226.1,415.8 226.4,415.8 226.6,415.7C227.2,415.6 227.4,415.4 226.8,414.9C224.5,412.9 223.3,410.3 222.6,407.4C221.9,404.4 221,401.3 220.5,398.2C219.7,392.7 220.3,387.3 222.3,382C222.8,380.7 223.6,379.4 224.4,378.2C226.6,375.2 228.8,372.2 231.1,369.2C233.2,366.6 235.5,364.2 237.4,361.5C239,359.2 240.4,356.6 241.6,354C243.5,350 244.9,345.8 245.9,341.4C246.7,337.5 247.2,333.5 246.3,329.5C245.5,325.8 244.9,322 243.7,318.4C242.5,314.7 240.7,311.1 239.1,307.5C238.1,305.2 237.2,302.8 236.1,300.5C234.8,297.8 233.4,295.2 232,292.5C231,290.6 230.2,288.6 229.2,286.7C228.5,285.4 227.7,284.1 227,282.8C225.4,279.8 223.5,277 222.1,273.9C220.3,269.9 219.9,265.7 220,261.1C220.1,256.5 221,252.2 221.3,251.2C222.1,249.3 222.8,247.3 223.8,245.4C224.5,244.2 225.6,243.2 226.6,242.1C228.7,239.8 228.8,239.8 226.7,237.4C225,235.4 223.1,233.6 221.3,231.6C221.2,231.5 221,231.3 220.9,231.2C220.5,230.6 219.9,230 220.6,229.3C221.2,228.7 222,229.1 222.5,229.6C225,232.1 227.4,234.5 229.8,237.1C231.2,238.6 231.3,238.6 233,237.6C235.3,236.2 236.9,234.2 238.3,232C239.1,230.7 239.6,229.1 240.1,227.6C240.4,226.7 239.9,226.4 239.1,226.6C237.6,227.1 236,227.5 234.5,228.1C232.3,229 230.9,228.1 230.6,225.9C230.3,223.6 229.7,221.3 229.2,219C228.9,217.4 228.5,215.8 228.1,214.2C227.9,213.4 227.7,212.7 227.3,212C226.4,210.2 227.1,209.1 229.1,209C230.3,208.9 231.5,208.7 232.6,208.4C232.9,208.3 233.3,207.7 233.3,207.3C233.1,205.9 232.8,204.6 232.6,203.2C232.6,203 232.4,202.7 232.3,202.5C232.1,201.8 232.3,201.2 233.1,201C233.8,200.8 234.2,201.2 234.4,201.9C234.8,203.2 235.1,204.6 235.6,205.9C235.9,206.7 236,207.7 237.3,207.6C239,207.5 239.3,207 238.9,205.4C238.6,204.3 238.2,203.3 237.9,202.2C237.6,201.1 237.9,200.3 238.7,200.2C239.7,200 240.2,200.4 240.4,201.6C240.6,202.8 240.9,204 241,205.3C241.2,206.6 241.4,206.8 242.7,206.5C243,206.4 243.3,206.4 243.6,206.3C245.9,206 246.9,206.6 247.2,208.9C247.8,212.4 248.2,215.9 248.7,219.4C248.9,220.8 249.2,222.2 249.5,223.7C249.7,224.9 249.4,225.5 248.1,225.6C246.9,225.7 245.7,226 244.5,226C243.3,226 242.7,226.5 242.6,227.6C242.1,230.7 240.6,233.2 238.9,235.7C237.6,237.6 235.6,238.6 233.8,239.8C232.8,240.5 233,241 233.6,241.6C235.3,243.2 237,244.8 238.7,246.4C241.1,248.5 243.4,250.7 246,252.6C249.8,255.4 253.9,258 257.8,260.8C259.7,262.2 261.5,263.8 263.3,265.4C266.3,267.9 269.2,270.5 272.2,272.9C274.2,274.6 276.4,276 278.5,277.7C279.1,278.2 279.5,279 280.1,279.6L280.5,280C280.6,279.8 280.9,279.6 280.9,279.5C280.8,278 281.5,276.4 280.2,274.9C279.2,273.6 279.2,272 280.4,270.6C281,269.9 281.4,269.2 281.4,268.2C281.5,265.2 281.6,262.2 281.7,259.3C281.8,257.5 281.9,255.6 281.9,253.8C281.8,245.8 281.8,237.7 281.6,229.7C281.5,225.4 281,221.1 280.9,216.8C280.8,213.6 281,210.4 281.1,207.2C281.2,204.5 281.5,201.8 281.6,199.1C281.7,196.5 281.6,193.8 281.6,191.2C281.6,190.9 281.6,190.5 281.5,190.2C280.7,188.5 281.6,187.5 282.9,186.8C285.6,185.4 287.9,183.5 290.6,182.1C293.2,180.8 295.9,180.5 298.6,180C300.7,179.7 302.7,179.2 304.8,178.9C308.4,178.4 312,178 315.6,177.6C319.8,177.2 324,176.9 328.3,176.6C330.2,176.5 332.1,176.7 334,176.5C335.2,176.3 336.3,175.5 337.5,175.1C338.8,174.6 340.1,174.1 341.4,173.7C342.5,173.4 343.4,173.8 343.7,175C343.9,175.8 344.4,175.9 345,175.8C346.4,175.7 347.9,175.5 349.3,175.5C352.4,175.4 355.6,175.3 358.7,175.2C363,175 367.3,174.6 371.7,174.4C374.5,174.3 377.4,174.3 380.2,174.2C382.4,174.1 384.6,173.9 386.9,173.7C391.4,173.4 395.8,173.1 400.3,172.8C402.7,172.6 405.1,172.2 407.5,172C410.6,171.8 413.7,171.6 416.9,171.6C420.5,171.6 424,171.1 427.6,170.8C428.8,170.7 430.1,170.8 431.3,170.7C433.9,170.6 436.5,170.4 439.1,170.2C441.1,170.1 442.8,169.4 444.5,168.6C445.2,168.3 445.9,168.1 446.6,167.7C448.6,166.7 450.5,167.1 452,168.4C453.1,169.4 454.4,169.3 455.6,169.3C458.4,169.2 461.2,169.1 463.9,168.8C468.7,168.4 473.5,167.8 478.3,167.5C481.9,167.3 485.6,167.4 489.2,167.4C489.5,167.4 489.9,167.9 489.9,168.2C490.1,169.2 490.3,170.2 490.1,171.2C489.5,174.9 489.9,178.6 489.9,182.3C489.9,188.1 489.8,193.9 489.5,199.7C489.2,204.6 488.2,228.5 488.2,231.3L488.2,237.7C488.3,240.6 488.5,243.6 488.6,246.5C488.6,247.6 488.5,248.7 488.7,249.7C489,250.7 489.6,251.7 490.1,252.7C491.7,255.7 492,258.9 491.3,262.1C491.1,262.9 490.7,263.7 490.2,264.4C488.6,266.5 489.5,268.7 489.6,270.9C489.7,271.6 490.1,271.1 490.4,270.9C491.9,269.3 493.4,267.7 495,266.2C497.7,263.7 500.5,261.2 503.3,258.7C504.8,257.3 506.2,255.8 507.7,254.4C509.2,253.1 510.7,251.8 512.2,250.5C513.7,249.1 515.1,247.7 516.6,246.2C518.7,244 520.8,241.8 523,239.7C525.6,237.2 528.5,234.9 531.1,232.4C533.1,230.5 535,228.3 537,226.3C538.7,224.6 540.5,222.9 542.2,221.2C543.4,220 544.8,218.9 545.9,217.6C546.5,216.9 546.8,215.9 546.8,215C546.7,213.7 546.4,212.4 545.9,211.1C545.4,209.7 545.7,208.9 547.1,208.3C547.4,208.2 547.7,207.8 547.7,207.5C547.7,206.6 547.6,205.6 547.5,204.7C547.3,202.1 547.2,199.4 547.1,196.8C547,195.1 547.3,194.9 549.1,194.8C552.2,194.6 555.2,194.3 558.3,194.1L559.3,194.1C561.2,194.1 561.8,194.7 561.6,196.6C561.3,200.1 561.1,203.6 560.7,207C560.6,208.2 561.1,208.6 562.1,208.8C563.6,209.1 564.1,209.7 563.6,211.2C562.4,214.8 562.4,218.6 561.9,222.4C561.8,223.3 561.5,223.7 560.7,223.8C560,223.9 559.2,224 558.5,223.9C557.7,223.8 557.4,224.1 557.4,224.9C557.3,226.3 557.2,227.7 557.1,229.1C556.9,230.6 556.3,232 555.2,233.2C552.6,235.8 550.1,238.5 547.6,241.1C547.4,241.3 547.3,241.5 547.1,241.7C544.5,245.8 541.9,249.9 539.5,254.2C538.5,255.9 538.4,258 538.7,260C539.2,263.7 540.9,267 542.5,270.4C543.8,273.1 545.4,275.7 546.8,278.4C548.8,282.4 550,286.7 551,291C551.4,292.7 552.1,294.3 552.5,296C553.1,298.7 553.6,301.4 553.9,304.1C554.5,309.1 554.1,314.1 553.3,319C552.7,322.5 551.4,325.8 550.7,329.3C549.7,333.9 547.7,338.2 545.8,342.4C544.4,345.4 542.5,348.2 540.6,350.9C538.9,353.2 537.1,355.6 535,357.5C532.2,360.1 529.2,362.5 526.1,364.7C521.9,367.7 517.5,370.5 513.2,373.3C511.7,374.3 510,375.1 508.4,376C505.1,377.8 501.9,379.7 498.6,381.4C494.9,383.3 491.8,385.9 488.6,388.4C486.9,389.7 485.1,391.1 483.6,392.6C482.1,394.1 480.7,395.8 479.5,397.5C478.4,399.1 478.7,402.1 480.3,403.4C480.7,403.7 484.5,409.1 486.8,410.6C487.5,411.1 487.9,411 488.4,410.3C491.9,405.8 496.7,402.7 501.2,399.3C503.2,397.7 505.3,396.1 507.6,395C510.1,393.7 512.9,392.9 515.5,392C517.2,391.4 519.1,391.1 520.8,390.6C524.4,389.7 527.9,390.5 530.7,392.7C532.6,394.2 534.8,395.7 535.2,398.4C535.5,400.9 535.4,403.4 534.4,405.8C533.5,407.9 532.6,410 531.4,412C530.4,413.6 529.1,414.9 527.9,416.4C527.6,416.7 527.5,417.1 527.3,417.5C527.7,417.6 528.1,417.7 528.6,417.8L530.7,417.8L542.2,418.6Z" style="fill:rgb(24,23,21);"/>
        <path d="M401.8,284.8C402.3,284.2 402.7,283.4 403.3,283.1C407.4,280.9 411.6,278.9 415.8,276.7C418.3,275.4 420.6,274 423,272.6C423.8,272.1 424.5,271.5 425.3,271C426.1,270.5 426.4,271.2 426.7,271.7C427.1,272.3 427.1,272.9 426.5,273.4C425.7,274 424.9,274.7 423.9,275.2C420.2,277.2 416.5,279.1 412.9,281.2C409.9,282.8 407.1,284.6 404.1,286.2C403.7,286.4 403.1,286.5 402.8,286.3C402.4,286 402.2,285.4 401.8,284.8Z" style="fill:rgb(24,23,21);"/>
        <path d="M415.6,226.8C415.6,228.1 414.3,229.3 413.1,229.2C411.9,229.1 411,228.2 411,226.9C411,225.5 411.9,224.5 413.1,224.5C414.3,224.5 415.7,225.7 415.6,226.8Z" style="fill:rgb(24,23,21);"/>
        <path d="M336,228.1C336,229.4 335.1,230.5 333.9,230.5C332.6,230.5 331.6,229.6 331.6,228.3C331.6,227 332.7,225.7 333.9,225.7C335,225.7 336,226.9 336,228.1Z" style="fill:rgb(24,23,21);"/>
        <path d="M554,206.2C553.8,206.5 553.4,207.2 553,207.3C552.2,207.4 552.1,206.6 552,206C551.8,204.4 551.5,202.7 551.3,201.1C551.2,200.5 551.1,199.7 551.9,199.7C552.3,199.7 553,200.3 553.1,200.7C553.4,202.4 553.6,204.2 554,206.2Z" style="fill:rgb(24,23,21);"/>
        <path d="M557.8,205.3C557.8,205.6 557.9,206 557.8,206.2C557.6,206.5 557.3,207 557,207C556.7,207 556.2,206.6 556.1,206.2C555.9,205.3 555.9,204.3 555.7,203.4C555.6,202.5 555.3,201.6 555.2,200.8C555.2,200.4 556.8,199.9 556.9,200.3C557.3,201.9 557.6,203.6 557.9,205.3C557.9,205.2 557.8,205.3 557.8,205.3Z" style="fill:rgb(24,23,21);"/>
    </g>
</svg>
